<svg version="1.1" preserveAspectRatio="none" xmlns="http://www.w3.org/2000/svg" width="500" height="500" viewBox="0 0 500 500"><rect width="100%" height="100%" fill="#F7F4F2" fill-opacity="1"/><svg viewBox="45.868 9.2818 359.1206 344.8959" width="333" height="319.80993209523484" x="83.5px" y="90.095px" xmlns="http://www.w3.org/2000/svg" xmlns:xlink="http://www.w3.org/1999/xlink" preserveAspectRatio="none"><defs></defs><style>.companyName {fill:#161616;fill-opacity:1;}.icon1 {fill:#161616;fill-opacity:1;}.icon2 {fill:#E5B7D2;fill-opacity:1;}.icon3 {fill:#848282;fill-opacity:1;}.icon3-str {stroke:#848282;stroke-opacity:1;}.text {fill:#161616;fill-opacity:1;}</style><g opacity="1" transform="rotate(0 91.944 333.1777)">
<svg width="266.9686" height="21" x="91.944" y="333.1777" version="1.1" preserveAspectRatio="none" viewBox="3.56 -29.6 489.64000000000004 38.52">
  <g transform="matrix(1 0 0 1 0 0)" class="text"><path id="id-6izo4zJp25" d="M23.20-28.40L25.96-28.40L25.96 0L23.20 0L23.20-13.28L6.36-13.28L6.36 0L3.56 0L3.56-28.40L6.36-28.40L6.36-15.76L23.20-15.76L23.20-28.40Z M42.84 0.40L42.84 0.40Q40.56 0.40 38.66-0.46Q36.76-1.32 35.36-2.82Q33.96-4.32 33.18-6.28Q32.40-8.24 32.40-10.48L32.40-10.48Q32.40-12.68 33.18-14.62Q33.96-16.56 35.34-18.02Q36.72-19.48 38.64-20.34Q40.56-21.20 42.80-21.20L42.80-21.20Q45.08-21.20 46.98-20.34Q48.88-19.48 50.24-18Q51.60-16.52 52.36-14.60Q53.12-12.68 53.12-10.52L53.12-10.52Q53.12-10.20 53.12-9.88Q53.12-9.56 53.08-9.44L53.08-9.44L35.24-9.44Q35.36-7.76 36.02-6.34Q36.68-4.92 37.72-3.88Q38.76-2.84 40.10-2.26Q41.44-1.68 42.96-1.68L42.96-1.68Q43.96-1.68 44.96-1.96Q45.96-2.24 46.80-2.72Q47.64-3.20 48.32-3.90Q49-4.60 49.36-5.44L49.36-5.44L51.72-4.80Q51.24-3.64 50.36-2.70Q49.48-1.76 48.32-1.06Q47.16-0.36 45.76 0.02Q44.36 0.40 42.84 0.40ZM35.20-11.52L50.52-11.52Q50.40-13.20 49.74-14.58Q49.08-15.96 48.06-16.96Q47.04-17.96 45.70-18.52Q44.36-19.08 42.84-19.08L42.84-19.08Q41.32-19.08 39.96-18.52Q38.60-17.96 37.58-16.96Q36.56-15.96 35.94-14.56Q35.32-13.16 35.20-11.52L35.20-11.52Z M64.16 0.40L64.16 0.40Q62.68 0.40 61.42-0.10Q60.16-0.60 59.22-1.48Q58.28-2.36 57.76-3.54Q57.24-4.72 57.24-6.08L57.24-6.08Q57.24-7.44 57.88-8.60Q58.52-9.76 59.68-10.60Q60.84-11.44 62.44-11.90Q64.04-12.36 65.96-12.36L65.96-12.36Q67.56-12.36 69.20-12.08Q70.84-11.80 72.12-11.28L72.12-11.28L72.12-13.16Q72.12-15.92 70.56-17.54Q69-19.16 66.24-19.16L66.24-19.16Q64.64-19.16 62.96-18.52Q61.28-17.88 59.56-16.68L59.56-16.68L58.60-18.48Q62.64-21.20 66.44-21.20L66.44-21.20Q70.36-21.20 72.60-19Q74.84-16.80 74.84-12.92L74.84-12.92L74.84-3.52Q74.84-2.40 75.84-2.40L75.84-2.40L75.84 0Q75.16 0.12 74.80 0.12L74.80 0.12Q73.76 0.12 73.18-0.40Q72.60-0.92 72.56-1.84L72.56-1.84L72.48-3.48Q71.04-1.60 68.86-0.60Q66.68 0.40 64.16 0.40ZM64.80-1.68L64.80-1.68Q66.92-1.68 68.70-2.48Q70.48-3.28 71.40-4.60L71.40-4.60Q71.76-4.96 71.94-5.38Q72.12-5.80 72.12-6.16L72.12-6.16L72.12-9.56Q70.76-10.08 69.30-10.36Q67.84-10.64 66.32-10.64L66.32-10.64Q63.44-10.64 61.64-9.44Q59.84-8.24 59.84-6.28L59.84-6.28Q59.84-5.32 60.22-4.48Q60.60-3.64 61.26-3.02Q61.92-2.40 62.84-2.04Q63.76-1.68 64.80-1.68Z M82.44-3.80L82.44-29.20L85.16-29.20L85.16-4.72Q85.16-3.56 85.80-2.90Q86.44-2.24 87.60-2.24L87.60-2.24Q88.04-2.24 88.64-2.36Q89.24-2.48 89.76-2.68L89.76-2.68L90.24-0.48Q89.48-0.16 88.38 0.04Q87.28 0.24 86.48 0.24L86.48 0.24Q84.60 0.24 83.52-0.82Q82.44-1.88 82.44-3.80L82.44-3.80Z M104.08-3.20L104.80-1Q104.56-0.88 104.10-0.68Q103.64-0.48 103.04-0.28Q102.44-0.08 101.68 0.08Q100.92 0.24 100.08 0.24L100.08 0.24Q99.20 0.24 98.40 0Q97.60-0.24 97.00-0.74Q96.40-1.24 96.04-2Q95.68-2.76 95.68-3.76L95.68-3.76L95.68-18.68L92.80-18.68L92.80-20.84L95.68-20.84L95.68-27.88L98.40-27.88L98.40-20.84L103.20-20.84L103.20-18.68L98.40-18.68L98.40-4.52Q98.48-3.36 99.22-2.82Q99.96-2.28 100.92-2.28L100.92-2.28Q102.08-2.28 102.96-2.66Q103.84-3.04 104.08-3.20L104.08-3.20Z M127.32-12.20L127.32 0L124.60 0L124.60-11.64Q124.60-15.20 123.38-16.96Q122.16-18.72 119.80-18.72L119.80-18.72Q118.64-18.72 117.50-18.26Q116.36-17.80 115.36-17Q114.36-16.20 113.62-15.12Q112.88-14.04 112.52-12.76L112.52-12.76L112.52 0L109.80 0L109.80-29.20L112.52-29.20L112.52-16.12Q113.76-18.48 115.96-19.84Q118.16-21.20 120.72-21.20L120.72-21.20Q122.52-21.20 123.76-20.54Q125.00-19.88 125.80-18.70Q126.60-17.52 126.96-15.86Q127.32-14.20 127.32-12.20L127.32-12.20Z M135.36 8.80L135.36 6.40Q135.68 6.44 135.98 6.46Q136.28 6.48 136.56 6.48L136.56 6.48Q137.28 6.48 137.70 6.28Q138.12 6.08 138.52 5.40Q138.92 4.72 139.42 3.44Q139.92 2.16 140.84 0L140.84 0L131.76-20.84L134.56-20.84L142.28-2.52L149.44-20.84L152.04-20.84L141.24 6.04Q140.80 7.20 139.78 8.06Q138.76 8.92 137.00 8.92L137.00 8.92Q136.60 8.92 136.24 8.90Q135.88 8.88 135.36 8.80L135.36 8.80Z M186.68-25.32L185.32-23.08Q184.12-24.44 182.12-25.28Q180.12-26.12 177.56-26.12L177.56-26.12Q173.80-26.12 172.08-24.70Q170.36-23.28 170.36-20.84L170.36-20.84Q170.36-19.56 170.82-18.74Q171.28-17.92 172.24-17.32Q173.20-16.72 174.70-16.28Q176.20-15.84 178.24-15.40L178.24-15.40Q180.52-14.92 182.34-14.32Q184.16-13.72 185.44-12.82Q186.72-11.92 187.40-10.64Q188.08-9.36 188.08-7.44L188.08-7.44Q188.08-5.48 187.32-4.04Q186.56-2.60 185.20-1.64Q183.84-0.68 181.96-0.22Q180.08 0.24 177.84 0.24L177.84 0.24Q171.24 0.24 166.44-3.88L166.44-3.88L167.84-6.16Q168.60-5.36 169.66-4.64Q170.72-3.92 172.02-3.38Q173.32-2.84 174.80-2.54Q176.28-2.24 177.92-2.24L177.92-2.24Q181.32-2.24 183.22-3.46Q185.12-4.68 185.12-7.16L185.12-7.16Q185.12-8.48 184.58-9.38Q184.04-10.28 182.96-10.94Q181.88-11.60 180.28-12.08Q178.68-12.56 176.56-13.04L176.56-13.04Q174.32-13.56 172.64-14.12Q170.96-14.68 169.80-15.52Q168.64-16.36 168.06-17.54Q167.48-18.72 167.48-20.44L167.48-20.44Q167.48-22.40 168.22-23.94Q168.96-25.48 170.32-26.50Q171.68-27.52 173.52-28.06Q175.36-28.60 177.60-28.60L177.60-28.60Q180.44-28.60 182.66-27.74Q184.88-26.88 186.68-25.32L186.68-25.32Z M211.88 0L208.92 0L201.24-10.68L196.76-6.52L196.76 0L194.04 0L194.04-29.20L196.76-29.20L196.76-9.36L208.48-20.80L211.56-20.80L203.04-12.28L211.88 0Z M219.56 0L216.84 0L216.84-20.84L219.56-20.84L219.56 0ZM219.56-25.20L216.84-25.20L216.84-29.20L219.56-29.20L219.56-25.20Z M244.68-12.20L244.68 0L241.96 0L241.96-11.64Q241.96-15.36 240.86-17.04Q239.76-18.72 237.48-18.72L237.48-18.72Q236.28-18.72 235.08-18.28Q233.88-17.84 232.86-17.04Q231.84-16.24 231.04-15.14Q230.24-14.04 229.88-12.76L229.88-12.76L229.88 0L227.16 0L227.16-20.84L229.64-20.84L229.64-16.12Q230.92-18.40 233.30-19.80Q235.68-21.20 238.48-21.20L238.48-21.20Q240.20-21.20 241.40-20.56Q242.60-19.92 243.32-18.76Q244.04-17.60 244.36-15.92Q244.68-14.24 244.68-12.20L244.68-12.20Z M255.48-9.12L252.76-9.12L252.76-28.68L255.48-28.68L255.48-9.12ZM255.48 0L252.76 0L252.76-4.48L255.48-4.48L255.48 0Z M295.76-28.40L298.52-28.40L298.52 0L295.76 0L295.76-13.28L278.92-13.28L278.92 0L276.12 0L276.12-28.40L278.92-28.40L278.92-15.76L295.76-15.76L295.76-28.40Z M311.72 0.40L311.72 0.40Q310.24 0.40 308.98-0.10Q307.72-0.60 306.78-1.48Q305.84-2.36 305.32-3.54Q304.80-4.72 304.80-6.08L304.80-6.08Q304.80-7.44 305.44-8.60Q306.08-9.76 307.24-10.60Q308.40-11.44 310.00-11.90Q311.60-12.36 313.52-12.36L313.52-12.36Q315.12-12.36 316.76-12.08Q318.40-11.80 319.68-11.28L319.68-11.28L319.68-13.16Q319.68-15.92 318.12-17.54Q316.56-19.16 313.80-19.16L313.80-19.16Q312.20-19.16 310.52-18.52Q308.84-17.88 307.12-16.68L307.12-16.68L306.16-18.48Q310.20-21.20 314.00-21.20L314.00-21.20Q317.92-21.20 320.16-19Q322.40-16.80 322.40-12.92L322.40-12.92L322.40-3.52Q322.40-2.40 323.40-2.40L323.40-2.40L323.40 0Q322.72 0.12 322.36 0.12L322.36 0.12Q321.32 0.12 320.74-0.40Q320.16-0.92 320.12-1.84L320.12-1.84L320.04-3.48Q318.60-1.60 316.42-0.60Q314.24 0.40 311.72 0.40ZM312.36-1.68L312.36-1.68Q314.48-1.68 316.26-2.48Q318.04-3.28 318.96-4.60L318.96-4.60Q319.32-4.96 319.50-5.38Q319.68-5.80 319.68-6.16L319.68-6.16L319.68-9.56Q318.32-10.08 316.86-10.36Q315.40-10.64 313.88-10.64L313.88-10.64Q311.00-10.64 309.20-9.44Q307.40-8.24 307.40-6.28L307.40-6.28Q307.40-5.32 307.78-4.48Q308.16-3.64 308.82-3.02Q309.48-2.40 310.40-2.04Q311.32-1.68 312.36-1.68Z M340.52 0.40L340.52 0.40Q337.88 0.40 335.86-0.94Q333.84-2.28 332.60-4.32L332.60-4.32L332.60 8.52L329.88 8.52L329.88-20.84L332.32-20.84L332.32-16.80Q333.60-18.76 335.64-19.98Q337.68-21.20 340.08-21.20L340.08-21.20Q342.24-21.20 344.04-20.30Q345.84-19.40 347.16-17.90Q348.48-16.40 349.22-14.44Q349.96-12.48 349.96-10.40L349.96-10.40Q349.96-8.20 349.28-6.24Q348.60-4.28 347.34-2.80Q346.08-1.32 344.34-0.46Q342.60 0.40 340.52 0.40ZM339.76-2L339.76-2Q341.44-2 342.82-2.72Q344.20-3.44 345.18-4.62Q346.16-5.80 346.68-7.30Q347.20-8.80 347.20-10.40L347.20-10.40Q347.20-12.08 346.60-13.60Q346-15.12 344.96-16.28Q343.92-17.44 342.50-18.12Q341.08-18.80 339.44-18.80L339.44-18.80Q338.40-18.80 337.26-18.38Q336.12-17.96 335.14-17.26Q334.16-16.56 333.46-15.62Q332.76-14.68 332.60-13.64L332.60-13.64L332.60-7.24Q333.08-6.12 333.82-5.16Q334.56-4.20 335.50-3.50Q336.44-2.80 337.52-2.40Q338.60-2 339.76-2Z M366.80 0.40L366.80 0.40Q364.16 0.40 362.14-0.94Q360.12-2.28 358.88-4.32L358.88-4.32L358.88 8.52L356.16 8.52L356.16-20.84L358.60-20.84L358.60-16.80Q359.88-18.76 361.92-19.98Q363.96-21.20 366.36-21.20L366.36-21.20Q368.52-21.20 370.32-20.30Q372.12-19.40 373.44-17.90Q374.76-16.40 375.50-14.44Q376.24-12.48 376.24-10.40L376.24-10.40Q376.24-8.20 375.56-6.24Q374.88-4.28 373.62-2.80Q372.36-1.32 370.62-0.46Q368.88 0.40 366.80 0.40ZM366.04-2L366.04-2Q367.72-2 369.10-2.72Q370.48-3.44 371.46-4.62Q372.44-5.80 372.96-7.30Q373.48-8.80 373.48-10.40L373.48-10.40Q373.48-12.08 372.88-13.60Q372.28-15.12 371.24-16.28Q370.20-17.44 368.78-18.12Q367.36-18.80 365.72-18.80L365.72-18.80Q364.68-18.80 363.54-18.38Q362.40-17.96 361.42-17.26Q360.44-16.56 359.74-15.62Q359.04-14.68 358.88-13.64L358.88-13.64L358.88-7.24Q359.36-6.12 360.10-5.16Q360.84-4.20 361.78-3.50Q362.72-2.80 363.80-2.40Q364.88-2 366.04-2Z M382.92 8.80L382.92 6.40Q383.24 6.44 383.54 6.46Q383.84 6.48 384.12 6.48L384.12 6.48Q384.84 6.48 385.26 6.28Q385.68 6.08 386.08 5.40Q386.48 4.72 386.98 3.44Q387.48 2.16 388.40 0L388.40 0L379.32-20.84L382.12-20.84L389.84-2.52L397-20.84L399.60-20.84L388.80 6.04Q388.36 7.20 387.34 8.06Q386.32 8.92 384.56 8.92L384.56 8.92Q384.16 8.92 383.80 8.90Q383.44 8.88 382.92 8.80L382.92 8.80Z M435.48 0L416.28 0L416.28-28.40L419.08-28.40L419.08-2.48L435.48-2.48L435.48 0Z M443.36 0L440.64 0L440.64-20.84L443.36-20.84L443.36 0ZM443.36-25.20L440.64-25.20L440.64-29.20L443.36-29.20L443.36-25.20Z M454.68 0L451.96 0L451.96-18.68L449.08-18.68L449.08-20.84L451.96-20.84L451.96-21.40Q451.96-25.24 453.60-27.42Q455.24-29.60 458.08-29.60L458.08-29.60Q459.32-29.60 460.48-29.24Q461.64-28.88 462.48-28.28L462.48-28.28L461.64-26.32Q461.08-26.76 460.26-27Q459.44-27.24 458.60-27.24L458.60-27.24Q456.68-27.24 455.68-25.76Q454.68-24.28 454.68-21.48L454.68-21.48L454.68-20.84L460.44-20.84L460.44-18.68L454.68-18.68L454.68 0Z M473.72 0.40L473.72 0.40Q471.44 0.40 469.54-0.46Q467.64-1.32 466.24-2.82Q464.84-4.32 464.06-6.28Q463.28-8.24 463.28-10.48L463.28-10.48Q463.28-12.68 464.06-14.62Q464.84-16.56 466.22-18.02Q467.60-19.48 469.52-20.34Q471.44-21.20 473.68-21.20L473.68-21.20Q475.96-21.20 477.86-20.34Q479.76-19.48 481.12-18Q482.48-16.52 483.24-14.60Q484.00-12.68 484.00-10.52L484.00-10.52Q484.00-10.20 484.00-9.88Q484.00-9.56 483.96-9.44L483.96-9.44L466.12-9.44Q466.24-7.76 466.90-6.34Q467.56-4.92 468.60-3.88Q469.64-2.84 470.98-2.26Q472.32-1.68 473.84-1.68L473.84-1.68Q474.84-1.68 475.84-1.96Q476.84-2.24 477.68-2.72Q478.52-3.20 479.20-3.90Q479.88-4.60 480.24-5.44L480.24-5.44L482.60-4.80Q482.12-3.64 481.24-2.70Q480.36-1.76 479.20-1.06Q478.04-0.36 476.64 0.02Q475.24 0.40 473.72 0.40ZM466.08-11.52L481.40-11.52Q481.28-13.20 480.62-14.58Q479.96-15.96 478.94-16.96Q477.92-17.96 476.58-18.52Q475.24-19.08 473.72-19.08L473.72-19.08Q472.20-19.08 470.84-18.52Q469.48-17.96 468.46-16.96Q467.44-15.96 466.82-14.56Q466.20-13.16 466.08-11.52L466.08-11.52Z M493.20-9.12L490.48-9.12L490.48-28.68L493.20-28.68L493.20-9.12ZM493.20 0L490.48 0L490.48-4.48L493.20-4.48L493.20 0Z"/></g>
</svg>
</g><g opacity="1" transform="rotate(0 45.868 245.1777)">
<svg width="359.1206" height="70" x="45.868" y="245.1777" version="1.1" preserveAspectRatio="none" viewBox="-3.4375 -29.8437 175.35150000000002 34.1797">
  <g transform="matrix(1 0 0 1 0 0)" class="companyName"><path id="id-D6z1nYkh11" d="M31.09-7.21L31.09-7.21L31.25-6.46Q31.25-6.00 30.76-5.35L30.76-5.35Q29.47-3.67 26.63-1.49Q23.79 0.68 22.44 0.68Q21.09 0.68 20.33-0.11Q19.57-0.90 19.57-1.91L19.57-1.91Q19.57-3.13 22.11-7.27L22.11-7.27Q25.92-13.42 31.84-21.64L31.84-21.64Q30.59-20.35 25.20-14.69L25.20-14.69Q13.26-2.19 11.25-0.53L11.25-0.53Q10.92-0.25 10.28-0.25Q9.65-0.25 8.95-0.77Q8.24-1.29 8.24-1.93L8.24-1.93L8.24-2.03Q8.32-2.85 12.01-10.06Q15.70-17.27 18.20-21.52L18.20-21.52Q14.51-17.46 10.74-12.46L10.74-12.46Q3.57-2.97 0.25 3.71L0.25 3.71Q-0.04 4.34-0.47 4.34Q-0.90 4.34-1.72 4.12L-1.72 4.12Q-3.44 3.65-3.44 2.48L-3.44 2.48Q-3.44 1.78-0.57-2.55Q2.30-6.88 6.09-12.00Q9.88-17.13 13.95-21.88L13.95-21.88Q19.55-28.44 21.15-28.44L21.15-28.44Q21.41-28.44 21.64-28.31Q21.88-28.18 21.93-28.18Q21.99-28.18 22.05-28.24L22.05-28.24Q22.30-28.55 23.06-28.55Q23.81-28.55 24.52-28.26Q25.23-27.97 25.23-27.60L25.23-27.60Q25.23-27.36 23.28-23.87L23.28-23.87Q16.74-12.27 14.49-7.93L14.49-7.93Q16.64-10.53 20.63-14.82Q24.63-19.12 29.02-23.40L29.02-23.40Q34.75-28.95 35.86-28.95L35.86-28.95Q36.31-28.95 36.99-28.75L36.99-28.75Q38.20-28.40 39.32-28.40L39.32-28.40Q39.63-28.34 39.85-28.13Q40.08-27.93 40.08-27.71Q40.08-27.50 39.96-27.36L39.96-27.36Q33.61-18.93 29.26-12.48Q24.90-6.04 23.89-3.77L23.89-3.77Q25.94-4.20 30-8.67L30-8.67Q30.18-8.91 30.25-8.98Q30.33-9.06 30.39-9.14L30.39-9.14Q30.72-9.53 30.90-8.65L30.90-8.65Q30.98-8.14 31.01-7.94Q31.04-7.73 31.06-7.51Q31.09-7.29 31.09-7.21Z M44.82-21.45L44.82-21.45Q44.82-20.33 43.79-19.21Q42.75-18.09 41.63-18.09Q40.51-18.09 40.51-19.26Q40.51-20.43 41.49-21.49Q42.48-22.56 43.67-22.56L43.67-22.56Q44.20-22.56 44.51-22.27Q44.82-21.97 44.82-21.45ZM41.66-4.39L41.66-4.39Q41.66-3.81 41.54-3.55L41.54-3.55Q40.59-1.60 38.50-0.40Q36.41 0.80 34.86 0.80Q33.32 0.80 32.21-0.23Q31.09-1.27 31.09-2.34Q31.09-3.42 32.17-5.47Q33.24-7.52 34.32-9.26Q35.39-11.00 35.39-11.14Q35.39-11.29 34.99-11.72Q34.59-12.15 34.59-12.35Q34.59-12.56 35.40-13.43Q36.21-14.30 37.37-15.15Q38.54-16.00 39.15-16.00Q39.77-16.00 40.25-15.45Q40.74-14.90 40.74-14.45Q40.74-14.00 36.09-6.00L36.09-6.00Q36.04-5.88 35.77-5.48Q35.51-5.08 35.36-4.81Q35.21-4.55 35.02-4.18L35.02-4.18Q34.63-3.40 34.63-2.87L34.63-2.87Q34.63-2.21 35.53-2.21Q36.43-2.21 37.39-2.82Q38.36-3.44 39.06-4.18L39.06-4.18Q40.90-6.15 41.15-6.15L41.15-6.15Q41.66-6.15 41.66-4.39Z M42.36-3.91L42.36-3.91L42.34-3.59Q42.34-3.11 42.71-2.75Q43.09-2.40 43.40-2.40L43.40-2.40Q45.74-2.40 47.55-3.11Q49.36-3.81 49.36-4.51L49.36-4.51Q49.36-4.84 48.70-5.09Q48.05-5.33 46.49-5.69Q44.94-6.05 44.24-6.26Q43.54-6.46 43.13-6.64Q42.71-6.82 42.29-7.13L42.29-7.13Q41.37-7.77 41.37-9.05Q41.37-10.33 42.31-11.59Q43.26-12.85 44.69-13.75Q46.11-14.65 47.75-15.33L47.75-15.33Q51.00-16.68 53.20-16.68L53.20-16.68Q55.37-16.68 55.88-15.74L55.88-15.74Q56.04-15.41 56.04-15L56.04-15L56.04-14.86Q56.04-13.83 55.60-13.24Q55.16-12.66 54.21-12.19Q53.26-11.72 52.71-11.72Q52.15-11.72 52.00-11.80Q51.86-11.88 51.76-12.00Q51.66-12.13 51.51-12.19Q51.37-12.25 51.37-12.48Q51.37-12.71 51.56-12.96Q51.76-13.20 51.84-13.48L51.84-13.48Q50.55-13.42 49.14-12.88Q47.73-12.34 46.73-11.68Q45.72-11.02 45.06-10.41Q44.39-9.80 44.39-9.52Q44.39-9.24 45.29-9.06L45.29-9.06Q49.34-8.26 50.61-7.68Q51.88-7.09 52.36-6.35Q52.85-5.61 52.85-5L52.85-5Q52.85-3.75 51.86-2.64Q50.86-1.52 49.39-0.82L49.39-0.82Q46.25 0.72 43.92 0.72Q41.58 0.72 40.69 0.01Q39.80-0.70 39.80-1.68Q39.80-2.66 40.30-3.49Q40.80-4.32 41.58-4.32Q42.36-4.32 42.36-3.91Z M57.07-3.91L57.07-3.91L57.05-3.59Q57.05-3.11 57.42-2.75Q57.79-2.40 58.11-2.40L58.11-2.40Q60.45-2.40 62.26-3.11Q64.06-3.81 64.06-4.51L64.06-4.51Q64.06-4.84 63.41-5.09Q62.75-5.33 61.20-5.69Q59.65-6.05 58.95-6.26Q58.24-6.46 57.83-6.64Q57.42-6.82 56.99-7.13L56.99-7.13Q56.07-7.77 56.07-9.05Q56.07-10.33 57.02-11.59Q57.97-12.85 59.39-13.75Q60.82-14.65 62.46-15.33L62.46-15.33Q65.70-16.68 67.91-16.68L67.91-16.68Q70.08-16.68 70.59-15.74L70.59-15.74Q70.74-15.41 70.74-15L70.74-15L70.74-14.86Q70.74-13.83 70.30-13.24Q69.86-12.66 68.92-12.19Q67.97-11.72 67.41-11.72Q66.86-11.72 66.71-11.80Q66.56-11.88 66.46-12.00Q66.37-12.13 66.22-12.19Q66.07-12.25 66.07-12.48Q66.07-12.71 66.27-12.96Q66.46-13.20 66.54-13.48L66.54-13.48Q65.25-13.42 63.85-12.88Q62.44-12.34 61.44-11.68Q60.43-11.02 59.77-10.41Q59.10-9.80 59.10-9.52Q59.10-9.24 60-9.06L60-9.06Q64.04-8.26 65.31-7.68Q66.58-7.09 67.07-6.35Q67.56-5.61 67.56-5L67.56-5Q67.56-3.75 66.56-2.64Q65.57-1.52 64.10-0.82L64.10-0.82Q60.96 0.72 58.62 0.72Q56.29 0.72 55.40 0.01Q54.51-0.70 54.51-1.68Q54.51-2.66 55.01-3.49Q55.51-4.32 56.29-4.32Q57.07-4.32 57.07-3.91Z M94.90-27.91L95.82-27.75L97.25-28.07Q97.79-28.07 98.13-27.83Q98.46-27.60 98.46-27.39Q98.46-27.19 98.36-26.80Q98.26-26.41 96.78-19.18Q95.29-11.95 94.61-8.40L94.61-8.40Q97.93-12.91 102.36-19.51Q106.80-26.11 107.54-28.28L107.54-28.28Q107.77-28.96 108.14-29.34Q108.52-29.71 108.81-29.78Q109.10-29.84 109.71-29.84Q110.31-29.84 111.14-29.58Q111.97-29.32 111.97-28.71L111.97-28.71Q111.97-27.56 108.55-22.07Q105.14-16.58 100.75-10.41Q96.37-4.24 93.42-0.64L93.42-0.64Q92.89 0 92.14 0Q91.39 0 90.56-0.26Q89.73-0.53 89.73-1.19L89.73-1.19Q89.73-3.34 93.50-21.84L93.50-21.84Q90.27-17.66 85.66-10.20L85.66-10.20Q80.86-2.48 80.23-0.63L80.23-0.63Q79.88 0.49 79.43 0.66L79.43 0.66Q79.12 0.80 78.77 0.80L78.77 0.80L77.23 0.98Q76.78 0.98 76.40 0.72Q76.02 0.47 76.02 0.20L76.02 0.20Q76.02-0.59 78.17-4.47Q80.33-8.36 83.21-12.92Q86.09-17.48 89.24-21.80Q92.38-26.11 94.10-27.60L94.10-27.60Q94.45-27.91 94.90-27.91L94.90-27.91Z M118.71-14.84L118.71-14.84Q120.20-14.84 120.20-13.83L120.20-13.83Q120.20-13.28 119.94-13.03Q119.69-12.77 118.86-11.34Q118.03-9.90 117.02-7.67Q116.02-5.43 115.72-3.85L115.72-3.85Q115.66-3.65 115.66-3.30L115.66-3.30Q115.66-2.23 116.25-2.23Q116.84-2.23 117.64-2.78Q118.44-3.34 119.06-3.97Q119.69-4.61 120.28-5.27Q120.88-5.94 121.00-6.04Q121.11-6.13 121.35-6.13L121.35-6.13Q121.72-6.13 121.80-5.57Q121.88-5 121.88-4.39Q121.88-3.79 121.76-3.55L121.76-3.55Q121.19-2.44 119.27-0.88Q117.34 0.68 115.77 0.68Q114.20 0.68 113.46-0.27Q112.71-1.23 112.71-2.39Q112.71-3.55 113.11-4.43L113.11-4.43Q111.48-2.32 109.38-0.86Q107.29 0.61 105.96 0.61Q104.63 0.61 103.79-0.20L103.79-0.20Q102.71-1.19 102.71-2.96Q102.71-4.73 103.51-6.51Q104.30-8.30 105.59-9.78Q106.88-11.25 108.42-12.46L108.42-12.46Q111.66-15 114.39-15L114.39-15Q115.45-15 116.11-14.65Q116.78-14.30 116.95-13.77L116.95-13.77Q117.42-14.47 117.74-14.66Q118.07-14.84 118.71-14.84ZM116.11-12.68L116.11-12.68Q112.77-12.68 109.20-8.96L109.20-8.96Q107.93-7.64 106.87-5.78Q105.80-3.93 105.80-3.24Q105.80-2.56 106.19-2.56L106.19-2.56Q106.74-2.56 109.24-4.72Q111.74-6.88 112.56-7.89L112.56-7.89Q113.46-9.02 116.11-12.68Z M132.62-25.04L133.54-25.16L134.34-24.96Q134.51-24.96 134.65-24.79Q134.79-24.61 134.79-24.45Q134.79-24.30 134.38-23.61Q133.96-22.93 133.41-22.06Q132.85-21.19 132.81-21.11L132.81-21.11Q134.34-21.23 134.97-21.23Q135.61-21.23 135.84-21.14Q136.07-21.05 136.38-20.65Q136.68-20.25 136.93-20.05Q137.19-19.84 137.19-19.43Q137.19-19.02 136.69-18.74Q136.19-18.46 135.63-18.40L135.63-18.40Q131.09-17.95 130.63-17.93L130.63-17.93Q129.04-15.51 126.20-10.38Q123.36-5.25 123.18-3.96L123.18-3.96Q123.11-3.38 123.11-3.01L123.11-3.01Q123.11-2.25 123.91-2.25Q124.71-2.25 125.68-2.86Q126.66-3.48 127.48-4.20L127.48-4.20Q129.67-6.15 129.82-6.15L129.82-6.15Q130.33-6.15 130.33-4.39L130.33-4.39Q130.33-3.44 129.45-2.68L129.45-2.68Q127.48-0.98 126.13-0.12Q124.79 0.74 123.44 0.74L123.44 0.74Q123.14 0.74 122.89 0.68L122.89 0.68Q121.33 0.39 120.60-0.46Q119.86-1.31 119.87-2.75Q119.88-4.20 120.73-6.26Q121.58-8.32 122.87-10.64L122.87-10.64Q124.98-14.43 127.09-17.75L127.09-17.75L126.35-17.66Q124.08-17.40 123.71-17.40L123.71-17.40L123.54-17.40Q122.97-17.40 122.44-17.63Q121.91-17.85 121.91-18.18Q121.91-18.52 122.20-18.83Q122.48-19.14 122.54-19.32L122.54-19.32Q122.68-19.75 123.56-20.27Q124.45-20.80 124.90-20.83Q125.35-20.86 125.77-20.88Q126.19-20.90 126.71-20.92Q127.23-20.94 127.50-20.96L127.50-20.96L129.26-21.04Q130.90-23.50 131.51-24.20Q132.13-24.90 132.23-24.97Q132.32-25.04 132.62-25.04L132.62-25.04Z M145.23-6.13L145.23-6.13Q145.61-6.13 145.68-5.57Q145.76-5 145.76-4.39Q145.76-3.79 145.64-3.55L145.64-3.55Q145.08-2.46 143.16-0.89Q141.25 0.68 139.53 0.68L139.53 0.68Q138.48 0.68 137.58 0.05Q136.68-0.59 136.68-2.17Q136.68-3.75 137.52-5.27L137.52-5.27Q132.68 0.80 129.92 0.80L129.92 0.80Q128.83 0.80 128.15 0.02Q127.48-0.76 127.48-1.59Q127.48-2.42 127.71-3.31Q127.95-4.20 128.21-4.90Q128.48-5.61 128.99-6.64Q129.51-7.68 129.77-8.14Q130.02-8.61 130.58-9.56Q131.13-10.51 132.04-12.11Q132.95-13.71 133.54-14.48Q134.14-15.25 134.71-15.26Q135.27-15.27 135.70-14.80Q136.13-14.34 136.13-14.04Q136.13-13.75 134.82-11.41L134.82-11.41Q130.96-4.41 130.96-3.26L130.96-3.26Q130.96-2.97 131.17-2.97L131.17-2.97Q132.11-2.97 135.84-7.03Q139.57-11.09 140.16-12.24Q140.74-13.38 141.30-14.16Q141.86-14.94 142.13-15.12L142.13-15.12Q142.97-15.66 144.30-15.70L144.30-15.70Q144.51-15.70 144.63-15.68Q144.75-15.66 144.90-15.35Q145.06-15.04 145.06-14.86L145.06-14.86Q144.88-14.32 143.51-11.95Q142.13-9.59 141.97-9.28L141.97-9.28Q139.67-4.51 139.67-3.07L139.67-3.07Q139.67-2.25 140.29-2.25L140.29-2.25Q141.43-2.40 143.03-4.06L143.03-4.06Q143.61-4.67 144.19-5.29Q144.77-5.92 144.90-6.03Q145.04-6.13 145.23-6.13Z M151.72-11.88L150.90-10.64Q155.51-15.88 158.75-15.88L158.75-15.88Q159.55-15.88 160.07-15.40Q160.59-14.92 160.59-14.16Q160.59-13.40 159.50-11.61Q158.42-9.82 157.50-8.59L157.50-8.59Q157.01-7.97 156.40-7.97Q155.78-7.97 155.44-8.42Q155.10-8.87 155.10-9.47L155.10-9.47Q155.10-10.82 156.54-12.52L156.54-12.52L156.50-12.56Q155.86-12.50 153.31-10.02Q150.76-7.54 148.97-5.58Q147.19-3.61 145.10-0.80L145.10-0.80Q144.49 0.04 144.07 0.04Q143.65 0.04 142.96-0.22Q142.27-0.49 142.12-0.61Q141.97-0.72 141.97-1.00Q141.97-1.27 142.13-1.63Q142.29-1.99 142.71-2.66Q143.13-3.32 143.97-4.80Q144.82-6.29 146.62-9.30Q148.42-12.30 148.77-12.93L148.77-12.93Q149.51-14.22 149.98-14.80L149.98-14.80Q150.86-15.92 152.95-15.92L152.95-15.92Q153.42-15.92 153.42-15.33L153.42-15.33Q153.42-14.41 151.72-11.88L151.72-11.88Z M171.91-14.61L171.91-14.61Q171.91-13.32 170.87-12.34Q169.82-11.37 168.50-11.37L168.50-11.37Q168.07-11.37 167.93-11.57Q167.79-11.78 167.79-12.11Q167.79-12.44 167.87-12.75L167.87-12.75Q167.17-12.52 166.31-12.03Q165.45-11.54 164.20-10.59Q162.95-9.63 162.95-9.16L162.95-9.16Q162.95-9.00 163.41-9.00Q163.87-9.00 164.82-9.33Q165.78-9.65 166.16-9.65Q166.54-9.65 166.66-9.61L166.66-9.61Q166.91-9.47 167.21-9.01Q167.50-8.55 167.50-8.29Q167.50-8.03 166.99-7.60Q166.48-7.17 165.84-6.94Q165.20-6.72 164.98-6.60L164.98-6.60Q160.86-4.30 160.86-3.44L160.86-3.44Q160.86-1.91 163.46-1.91L163.46-1.91Q165.12-1.91 166.80-2.97L166.80-2.97Q168.22-3.87 169.37-4.79Q170.51-5.72 170.81-5.94Q171.11-6.15 171.27-6.15L171.27-6.15Q171.78-6.15 171.78-5.02Q171.78-3.89 171.64-3.53Q171.50-3.16 170.86-2.64L170.86-2.64Q166.68 0.76 162.95 0.76L162.95 0.76Q160.96 0.76 159.77 0.21L159.77 0.21Q157.58-0.78 157.58-2.83L157.58-2.83Q157.58-5.53 161.31-6.91L161.31-6.91Q160.57-7.25 160.35-7.76Q160.14-8.28 160.14-9.42Q160.14-10.57 161.20-11.85Q162.27-13.13 163.81-13.95L163.81-13.95Q167.25-15.80 169.94-15.80L169.94-15.80Q170.59-15.80 171.25-15.49Q171.91-15.18 171.91-14.61Z"/></g>
</svg>
</g><g opacity="1" transform="rotate(0 153.6042 9.2818)">
<svg width="143.6482" height="205.8959" x="153.6042" y="9.2818" version="1.1" preserveAspectRatio="none" viewBox="20 7 60 86">
  <g transform="matrix(1 0 0 1 0 0)" class="icon1"><g transform="translate(0,-952.36218)"><path style="color:#000000;enable-background:accumulate;" d="m 50,959.3622 c -1.7173,3.43464 -3.4346,6.56536 0,10 1.7173,-3.43464 3.4347,-6.56536 0,-10 z m 9,0 c -3.6435,1.21399 -6.0002,1.14268 -6,6 3.6434,-1.21399 6.0001,-1.14268 6,-6 z m -18,2 c -2e-4,4.85732 3.3565,5.78601 7,7 2e-4,-4.85732 -3.3566,-5.78601 -7,-7 z m 18,3 c -3.6435,1.21399 -7.0002,2.14268 -7,7 3.6434,-1.21399 7.0001,-2.14268 7,-7 z m -18,2 c -2e-4,4.85732 3.3565,5.78601 7,7 2e-4,-4.85732 -3.3566,-5.78601 -7,-7 z m 8.96875,4.125 c -1.6507,0 -1.65625,8.77593 -1.65625,15.28125 0,15.30005 -1.8737,14.36785 -3.3125,17.00005 0,0 -3.0391,-1.1836 -4.9375,-5.09383 -1.6508,-3.39997 -0.005,-10.18747 -1.65625,-10.18747 -1.6508,0 -1.6508,8.50627 0,11.90627 1.6508,3.40003 5.60125,6.96693 6.59375,8.49993 2.04292,3.156 2.18501,11.4885 2,17.4063 -7.54135,2.4248 -12.2082,5.8178 -16,11.4687 -2.10267,0.07 -6.61044,0.8229 -9.71875,8.5938 4.16931,-4.1694 6.0989,-6.1068 8.5,-6.6875 -1.16096,1.9698 -2.25458,4.1862 -3.34375,6.6875 1.93988,-2.4249 3.74183,-4.7003 5.5625,-6.8125 1.58098,0.4821 3.16893,3.6505 4.75,6.8125 0,-4.2028 -1.15182,-7.2652 -3.4375,-8.25 3.83786,-4.2353 7.90632,-7.6973 13.625,-9.9688 -0.0679,1.4825 -0.0993,2.1252 -0.15625,2.9063 -1.49952,0.2816 -3.45936,1.0771 -5.34375,3.2812 -1.80302,0.032 -4.6875,0.4243 -4.6875,5.1563 1.11666,-2.2334 2.22709,-3.0081 3.34375,-3.2813 -0.57045,0.9261 -1.11368,2.003 -1.625,3.2813 1.39143,-1.3915 2.50813,-2.5133 3.5,-3.4375 1.69605,0.083 3.3977,3.4828 5.09375,6.875 0,-4.2236 -1.16044,-7.3122 -3.46875,-8.2813 1.2291,-0.9825 2.2752,-1.5793 3.4375,-1.8437 1.92102,0.8018 6.25,6.6875 6.25,6.6875 0,-1.4982 -2.46907,-5.4841 -3.40625,-6.7813 2.74813,0.371 4.63034,2.2241 9.1875,6.7813 -0.51132,-1.2783 -1.05455,-2.3552 -1.625,-3.2813 1.11666,0.2732 2.22709,1.0479 3.34375,3.2813 0,-4.732 -2.88448,-5.1248 -4.6875,-5.1563 -2.43494,-2.8481 -5.00528,-3.3242 -6.53125,-3.4062 0.027,-0.9057 0.002,-2.0122 -0.0312,-3.1875 6.27961,2.259 10.6181,5.8842 14.6875,10.375 -2.28568,0.9848 -3.4375,4.0472 -3.4375,8.25 1.58107,-3.162 3.16902,-6.3304 4.75,-6.8125 1.82067,2.1122 3.62262,4.3876 5.5625,6.8125 -1.08917,-2.5013 -2.18279,-4.7177 -3.34375,-6.6875 2.4011,0.5807 4.33069,2.5181 8.5,6.6875 -3.10831,-7.7709 -7.61608,-8.5236 -9.71875,-8.5938 -3.96455,-5.9083 -8.90005,-9.3674 -17.0625,-11.8125 -0.2191,-5.6575 -0.64469,-12.5086 0.5,-13.6875 1.1947,-1.2304 7.14715,-2.8411 9.90625,-6.7812 3.2686,-4.66753 3.3125,-11.75007 3.3125,-13.59375 0,-0.91869 -1.55275,7.10662 -4.96875,11.87505 -2.905,4.0552 -8.25,3.4 -8.25,0 0.9649,-10.68598 1.6508,-32.2813 0,-32.2813 z m -19.125,0.9375 c 0.2296,3.83363 0.46445,7.68034 5.15625,8.9375 -0.2296,-3.83362 -0.46455,-7.68034 -5.15625,-8.9375 z M 53,973.3622 c 2.873,2.54823 5.7934,5.42873 10,3 -3.40644,-2.77074 -6.26692,-5.11959 -10,-3 z m -12.34375,2.03125 c -2.5485,2.87311 -5.08495,5.76221 -2.65625,9.96875 2.5485,-2.87311 5.08485,-5.76221 2.65625,-9.96875 z M 20,976.3622 c 1.2571,4.69184 5.1664,4.7704 9,5 -1.2571,-4.69184 -5.1664,-4.77039 -9,-5 z m 49.15625,0.0625 c -3.2052,2.11562 -6.41355,4.24573 -5.15625,8.9375 3.2052,-2.11562 6.41355,-4.24573 5.15625,-8.9375 z m -39.4375,2.625 c -2e-4,4.85732 3.63775,6.09851 7.28125,7.3125 1e-4,-4.85732 -3.63785,-6.0985 -7.28125,-7.3125 z M 80,980.3622 c -3.8335,0.22959 -6.7429,0.30814 -8,5 3.8336,-0.22959 6.7429,-0.30814 8,-5 z m -22.15625,0.0625 c -1.2572,4.69177 1.95105,6.82188 5.15625,8.9375 1.2572,-4.69177 -1.95105,-6.82188 -5.15625,-8.9375 z m -10.5625,0.625 c -3.6435,1.214 -7.28145,2.45513 -7.28125,7.3125 3.6435,-1.21401 7.28145,-2.45513 7.28125,-7.3125 z m 24,1 c -3.6435,1.21399 -7.28145,2.45518 -7.28125,7.3125 3.6435,-1.21399 7.28145,-2.45518 7.28125,-7.3125 z m -50.21875,0.62495 c 2.4286,4.20664 6.1752,3.45789 9.9375,2.6875 -2.57971,-3.88232 -6.27089,-3.43664 -9.9375,-2.6875 z m 33.65625,3.375 c -2e-4,4.8573 3.63775,6.09855 7.28125,7.3125 1e-4,-4.8573 -3.63785,-6.09854 -7.28125,-7.3125 z M 26.6875,988.3622 c 3.4347,3.43472 6.8778,1.71789 10.3125,0 -3.33655,-3.11132 -6.97047,-1.67014 -10.3125,0 z m 46.3125,-2 c -3.6435,1.21396 -8.0002,2.1427 -8,7 3.6435,-1.21395 8.0002,-2.1427 8,-7 z m -4,7 c 3.7623,0.77043 7.5089,1.51907 9.9375,-2.6875 -3.96222,-1.03392 -8.09868,-0.38377 -9.9375,2.6875 z m -49,1.99997 c 4.2065,2.4288 7.1269,-0.4517 10,-2.99997 -3.78038,-2.2497 -7.45925,0.74224 -10,2.99997 z m 8.0625,2.125 c 4.6919,1.2573 6.8217,-1.92 8.9375,-5.12497 -4.06747,-1.16901 -7.14618,2.41923 -8.9375,5.12497 z M 64,995.36217 c 2.8731,2.5485 5.7309,5.08503 9.9375,2.6563 -3.4023,-2.7572 -6.29108,-4.72644 -9.9375,-2.6563 z" marker="none" visibility="visible" display="inline" overflow="visible"></path></g></g>
</svg>
</g></svg></svg>